<svg width="21" height="21" viewBox="0 0 21 21" fill="none" xmlns="http://www.w3.org/2000/svg">
<path d="M11.7225 3.2518C11.7227 3.25141 11.723 3.25102 11.7232 3.25063C12.5578 1.87134 13.9305 1 15.4527 1C17.9043 1 20 3.29042 20 6.26042C20 6.95407 19.8806 7.61397 19.6693 8.22027L19.6644 8.23445L19.6603 8.24889C18.9849 10.6405 17.1137 13.2954 15.1394 15.3983C14.1578 16.4439 13.1662 17.3365 12.3108 17.9768C11.8828 18.2972 11.4959 18.5492 11.1668 18.7253C10.8688 18.8847 10.6468 18.9661 10.4998 18.9944C10.3528 18.9661 10.1309 18.8847 9.83292 18.7253C9.50382 18.5492 9.11687 18.2972 8.68889 17.9768C7.83352 17.3365 6.84185 16.4439 5.86021 15.3983C3.8859 13.2954 2.01469 10.6405 1.33973 8.24897L1.33565 8.23454L1.33073 8.22038C1.11942 7.61345 1 6.95401 1 6.26042C1 3.29042 3.09573 1 5.54733 1C7.07024 1 8.44249 1.87176 9.27755 3.25189L9.27761 3.252L9.28331 3.26136C9.28777 3.26859 9.29355 3.27778 9.30065 3.28866C9.31479 3.31037 9.33435 3.33911 9.35912 3.37256C9.40805 3.43866 9.48042 3.52736 9.57502 3.61749C9.75528 3.78923 10.0719 4.01791 10.4998 4.01791C10.9277 4.01791 11.2445 3.78936 11.4249 3.61756C11.5195 3.52742 11.5919 3.43871 11.6409 3.3726C11.6656 3.33914 11.6852 3.31039 11.6993 3.28868C11.7064 3.2778 11.7122 3.2686 11.7167 3.26137L11.7224 3.252L11.7225 3.2518Z" fill="#FF7474" stroke="white" stroke-width="1.5"/>
</svg>
