<svg width="35" height="34" viewBox="0 0 35 34" fill="none" xmlns="http://www.w3.org/2000/svg">
<path d="M5.1087 33.1421C5.1087 33.1421 5.07805 34 5.81503 34C6.7321 34 14.3114 33.9884 14.3114 33.9884L14.3241 26.0624C14.3241 26.0624 14.2041 24.7566 15.3166 24.7566H18.8431C20.1599 24.7566 20.0795 26.0624 20.0795 26.0624L20.0641 33.9637C20.0641 33.9637 27.2526 33.9637 28.3817 33.9637C29.3166 33.9637 29.2745 32.8964 29.2745 32.8964V18.2803L17.5518 6.4109L5.1087 18.2817V33.1421Z" fill="#8993A1"/>
<path d="M0.525879 17.1767C0.525879 17.1767 1.5809 19.3926 3.88635 17.1767L17.6565 3.9143L30.5658 17.0938C33.2327 19.2836 34.2328 17.0938 34.2328 17.0938L17.6565 0L0.525879 17.1767Z" fill="#8993A1"/>
<path d="M30.2515 3.88376H26.9319L26.946 8.46837L30.2515 11.6629V3.88376Z" fill="#8993A1"/>
</svg>
