<svg width="24" height="24" viewBox="0 0 24 24" fill="none" xmlns="http://www.w3.org/2000/svg">
<path fill-rule="evenodd" clip-rule="evenodd" d="M11.9991 0C8.6405 0 5.88924 2.6739 5.88924 6.00723C5.88924 8.1497 7.02582 10.0197 8.7297 11.0825C3.95609 12.5248 0.419648 17.0144 0.00616848 22.0771C-0.0833815 23.1735 0.815708 24 1.81688 24H22.1831C23.1843 24 24.0834 23.1735 23.9938 22.0771C23.5803 17.014 20.0433 12.524 15.2691 11.0821C16.9726 10.0193 18.109 8.1494 18.109 6.00723C18.109 2.6739 15.3577 0 11.9991 0ZM7.74071 6.00723C7.74071 3.72598 9.6315 1.84838 11.9991 1.84838C14.3667 1.84838 16.2575 3.72598 16.2575 6.00723C16.2575 8.2885 14.3667 10.1661 11.9991 10.1661C9.6315 10.1661 7.74071 8.2885 7.74071 6.00723ZM2.95086 22.1516C2.36361 22.1516 1.89887 21.6462 2.01091 21.0697C2.94115 16.2837 7.09806 12.4476 12 12.4476C16.902 12.4476 21.0589 16.2837 21.9891 21.0697C22.1011 21.6462 21.6364 22.1516 21.0492 22.1516H2.95086Z" fill="black"/>
</svg>
