<svg width="35" height="34" viewBox="0 0 35 34" fill="none" xmlns="http://www.w3.org/2000/svg">
<path d="M34.0666 31.5767L24.3955 21.8066C26.3021 19.4983 27.4488 16.5485 27.4488 13.3266C27.4488 5.97641 21.4735 0 14.1236 0C6.7736 0 0.784485 5.98339 0.784485 13.3336C0.784485 20.6838 6.75978 26.6602 14.1097 26.6602C17.2321 26.6602 20.1058 25.5793 22.3854 23.7732L32.0909 33.5711C32.6573 34.143 33.5001 34.143 34.0666 33.5711C34.633 32.9993 34.633 32.1485 34.0666 31.5767ZM3.61671 13.3336C3.61671 7.55943 8.32787 2.86617 14.1097 2.86617C19.8916 2.86617 24.6028 7.55943 24.6028 13.3336C24.6028 19.1078 19.8916 23.801 14.1097 23.801C8.32787 23.801 3.61671 19.1008 3.61671 13.3336Z" fill="#8993A1"/>
</svg>
