<svg width="24" height="24" viewBox="0 0 24 24" fill="none" xmlns="http://www.w3.org/2000/svg">
<path d="M23.3647 9.38171H19.9731C19.8403 8.97839 19.678 8.58837 19.4882 8.21447L21.8875 5.81518C22.1355 5.56712 22.1355 5.165 21.8875 4.917L19.0828 2.11233C18.8348 1.86428 18.4327 1.86428 18.1847 2.11233L15.7854 4.51163C15.4115 4.32186 15.0215 4.15952 14.6182 4.02672V0.635145C14.6182 0.284347 14.3339 0 13.9831 0H10.0168C9.66604 0 9.38165 0.284347 9.38165 0.635093V4.02672C8.97833 4.15947 8.58836 4.32186 8.21442 4.51163L5.81519 2.11239C5.56713 1.86433 5.16502 1.86433 4.91702 2.11239L2.11237 4.91705C1.86432 5.16505 1.86432 5.56722 2.11237 5.81523L4.5116 8.21447C4.32183 8.58837 4.15944 8.97839 4.0267 9.38171H0.635141C0.284345 9.38171 0 9.66611 0 10.0169V13.9832C0 14.3339 0.284345 14.6183 0.635141 14.6183H4.02675C4.15955 15.0216 4.32188 15.4116 4.51165 15.7855L2.11242 18.1848C1.86437 18.4328 1.86437 18.8349 2.11242 19.083L4.91707 21.8876C5.16512 22.1356 5.56724 22.1356 5.81524 21.8876L8.21447 19.4884C8.58836 19.6781 8.97833 19.8405 9.3817 19.9733V23.3649C9.3817 23.7157 9.66604 24 10.0168 24H13.9832C14.3339 24 14.6183 23.7157 14.6183 23.3649V19.9733C15.0216 19.8405 15.4116 19.6781 15.7855 19.4884L18.1848 21.8876C18.4328 22.1356 18.8349 22.1356 19.0829 21.8876L21.8876 19.083C22.1356 18.8349 22.1356 18.4328 21.8876 18.1848L19.4883 15.7855C19.6781 15.4116 19.8405 15.0217 19.9733 14.6183H23.3649C23.7156 14.6183 24 14.334 24 13.9833V10.0169C23.9998 9.66611 23.7155 9.38171 23.3647 9.38171ZM11.9999 15.162C10.2536 15.162 8.83788 13.7463 8.83788 11.9999C8.83788 10.2536 10.2536 8.83789 11.9999 8.83789C13.7463 8.83789 15.162 10.2536 15.162 11.9999C15.162 13.7463 13.7463 15.162 11.9999 15.162Z" fill="black"/>
</svg>
