<svg width="30" height="30" viewBox="0 0 30 30" fill="none" xmlns="http://www.w3.org/2000/svg">
<path d="M29.061 13.609C28.879 13.5355 28.689 13.5 28.5005 13.5C28.1004 13.5 27.708 13.66 27.4195 13.96C26.003 15.432 24.285 16.6205 22.511 17.393C23.24 15.9355 23.8659 14.3295 23.7795 12.552C23.7524 11.9995 23.4234 11.5065 22.9235 11.2695C22.719 11.1725 22.4999 11.125 22.2814 11.125C21.9659 11.125 21.652 11.2245 21.3895 11.419C20.482 12.0901 18.3875 12.6455 16.581 12.8655C17.4945 11.526 18 9.92953 18 8.25006C18 3.70102 14.299 0 9.75 0C8.041 0 6.58148 0.425977 5.41201 1.26551L5.3465 1.3125C4.86053 1.66148 4.44498 1.95949 3.99053 2.4535L1.83504 1.96002C1.72354 1.93453 1.61104 1.92199 1.50006 1.92199C1.05457 1.92199 0.625547 2.12051 0.337031 2.475C-0.0234961 2.91803 -0.101484 3.52699 0.136523 4.04648C0.595547 5.04949 1.096 6.15949 1.3715 6.79096C0.241523 9.46898 0 12.031 0 15C0 23.271 6.72902 30 15 30C23.271 30 30 23.271 30 15C30 14.388 29.6285 13.8375 29.061 13.609ZM15 28.5C7.544 28.5 1.5 22.4555 1.5 15C1.5 12.046 1.73449 9.51551 3 6.82049C3.02502 6.75299 1.5 3.42199 1.5 3.42199L4.57049 4.125C5.18396 3.26197 5.58047 2.9915 6.28699 2.48402C7.26551 1.78148 8.47852 1.5 9.75 1.5C13.478 1.5 16.5 4.52203 16.5 8.25C16.5 10.667 15.2195 12.771 13.31 13.9635C13.345 14.309 14.054 14.4675 15.0755 14.4675C17.2185 14.4675 20.7364 13.768 22.2814 12.625C22.4064 15.1875 20.6565 17.4375 19.5939 19.7815C22.781 19.344 26.094 17.5 28.5 15C28.5 22.4555 22.456 28.5 15 28.5Z" fill="black"/>
</svg>
